<svg transform="rotate(0) scale(1, 1)" preserveAspectRatio="xMidYMid meet" viewBox="0 0 353.467 353.2482269503546" xmlns="http://www.w3.org/2000/svg" version="1.0" style="max-height: 500px" width="353.467" height="353.2482269503546">

<g stroke="none" fill="#003566" transform="translate(0.000000,352.000000) scale(0.100000,-0.100000)">
<path d="M1560 3485 c-293 -37 -521 -121 -760 -280 -373 -247 -639 -645 -730&#10;-1089 -117 -572 45 -1134 449 -1559 361 -379 859 -569 1379 -528 366 29 661&#10;145 947 372 77 61 248 237 306 314 212 284 324 595 344 955 38 692 -335 1336&#10;-953 1644 -194 98 -366 147 -592 171 -161 18 -249 17 -390 0z m525 -263 c445&#10;-97 818 -389 1025 -802 68 -135 150 -439 150 -554 0 -14 -31 -16 -310 -16&#10;-365 0 -363 0 -410 -84 -18 -31 -35 -56 -38 -56 -4 0 -47 98 -96 218 -49 119&#10;-100 237 -112 263 -32 65 -93 88 -142 53 -29 -20 -40 -43 -53 -106 -45 -233&#10;-129 -694 -129 -709 0 -11 -4 -19 -8 -19 -10 0 -23 99 -108 845 -77 682 -77&#10;682 -104 711 -45 47 -128 32 -155 -28 -8 -18 -39 -186 -70 -373 -78 -481 -169&#10;-1005 -175 -1005 -3 0 -16 55 -29 123 -32 164 -88 405 -102 440 -21 51 -101&#10;74 -146 42 -12 -9 -55 -79 -94 -156 -40 -77 -80 -144 -89 -149 -10 -5 -154&#10;-12 -321 -16 l-302 -6 7 73 c28 308 171 626 387 865 207 228 491 388 794 448&#10;126 24 129 24 340 21 152 -2 221 -8 290 -23z m-370 -1187 c45 -395 111 -937&#10;126 -1039 14 -91 36 -124 90 -132 30 -5 41 -1 68 22 30 28 33 37 66 219 58&#10;316 158 815 164 815 3 0 42 -88 85 -195 92 -227 112 -257 175 -259 51 -1 67&#10;15 131 124 22 38 49 74 60 80 11 6 129 10 301 10 l282 0 -7 -82 c-68 -800&#10;-804 -1410 -1615 -1338 -199 17 -383 66 -536 143 -459 228 -790 707 -832 1202&#10;l-6 74 346 3 c405 4 376 -5 446 128 30 57 46 79 51 69 4 -8 40 -158 80 -334&#10;83 -370 86 -381 122 -408 35 -26 91 -17 115 20 15 23 163 790 220 1143 21 134&#10;22 131 68 -265z"/>
<path d="M4233 2416 c-148 -48 -228 -150 -227 -291 0 -56 5 -80 26 -121 47&#10;-89 125 -137 317 -194 171 -51 211 -80 211 -151 0 -74 -65 -119 -173 -119 -85&#10;0 -151 21 -222 71 l-58 41 -61 -62 -61 -61 45 -41 c131 -117 359 -159 526 -97&#10;79 30 154 105 179 178 22 68 17 169 -13 227 -24 48 -85 105 -142 134 -22 11&#10;-82 31 -132 45 -222 59 -301 144 -215 230 77 77 233 69 341 -17 l39 -31 65 67&#10;65 67 -57 44 c-88 68 -149 87 -291 91 -83 3 -133 0 -162 -10z"/>
<path d="M5668 2415 c-15 -9 -35 -29 -43 -45 -24 -47 -19 -78 20 -117 33 -33&#10;39 -35 82 -30 93 10 134 102 76 167 -34 38 -93 49 -135 25z"/>
<path d="M8805 2416 c-116 -37 -192 -107 -219 -204 -20 -71 -20 -105 -2 -166&#10;33 -108 107 -163 316 -231 122 -41 151 -54 183 -85 50 -51 52 -97 4 -145 -79&#10;-79 -247 -65 -354 29 l-44 39 -60 -59 c-32 -32 -59 -64 -59 -71 0 -6 19 -28&#10;43 -47 106 -86 270 -130 405 -106 88 15 141 39 195 89 121 112 119 323 -4 423&#10;-60 48 -89 62 -210 98 -179 53 -229 88 -229 159 0 47 23 79 74 102 81 37 217&#10;13 290 -52 l33 -28 64 66 64 66 -40 33 c-45 40 -124 79 -186 93 -61 14 -216&#10;12 -264 -3z"/>
<path d="M5080 2111 c-172 -53 -286 -250 -251 -438 16 -90 46 -149 106 -209&#10;68 -69 141 -97 255 -98 110 -1 191 28 261 93 l50 46 -56 48 -55 48 -29 -21&#10;c-121 -85 -275 -65 -329 43 -12 24 -22 48 -22 53 0 5 112 9 252 9 l253 0 3 68&#10;c7 162 -74 297 -209 348 -51 20 -179 25 -229 10z m199 -170 c29 -21 61 -76 61&#10;-105 0 -14 -20 -16 -160 -16 -138 0 -160 2 -160 15 0 40 52 104 100 124 37 16&#10;125 6 159 -18z"/>
<path d="M6086 2100 c-60 -23 -122 -81 -137 -128 -6 -19 -9 -61 -7 -93 7 -102&#10;52 -141 225 -195 117 -36 143 -52 143 -85 0 -56 -57 -86 -143 -75 -57 8 -100&#10;27 -138 63 l-26 24 -48 -56 -48 -56 34 -35 c18 -19 59 -47 89 -62 50 -25 65&#10;-27 170 -27 129 0 166 12 227 77 41 43 53 76 53 149 0 117 -59 175 -225 219&#10;-101 27 -133 44 -141 77 -6 21 -2 31 20 50 51 43 168 24 213 -36 11 -14 19 -9&#10;70 42 l58 58 -39 34 c-83 73 -240 98 -350 55z"/>
<path d="M6884 2106 c-18 -8 -50 -31 -73 -51 l-41 -37 0 41 0 41 -90 0 -90 0&#10;2 -355 3 -356 87 -2 86 -2 4 235 c3 226 4 236 26 273 29 46 68 67 122 67 53 0&#10;107 -47 120 -105 5 -22 10 -136 10 -252 l0 -213 74 0 c41 0 81 -3 90 -6 14 -5&#10;16 18 16 227 0 211 2 236 20 274 24 50 65 75 120 75 34 0 48 -6 75 -33 18 -18&#10;38 -51 44 -72 6 -24 11 -131 11 -258 l0 -218 90 3 90 3 0 237 c0 137 -5 259&#10;-11 290 -31 144 -108 208 -251 208 -84 0 -154 -27 -202 -79 l-30 -31 -28 34&#10;c-42 51 -102 76 -179 76 -35 -1 -78 -7 -95 -14z"/>
<path d="M8000 2098 c-77 -30 -169 -123 -201 -203 -19 -49 -23 -79 -24 -160 0&#10;-88 3 -107 26 -155 38 -80 91 -135 163 -170 154 -76 336 -50 451 65 182 182&#10;128 506 -103 613 -81 37 -231 42 -312 10z m256 -174 c70 -56 100 -158 75 -251&#10;-31 -116 -160 -174 -268 -122 -54 26 -79 58 -99 127 -29 100 13 218 93 262 58&#10;31 150 24 199 -16z"/>
<path d="M9620 2103 c-93 -32 -168 -103 -213 -200 -18 -41 -22 -66 -22 -163 0&#10;-106 2 -120 28 -172 36 -73 119 -150 195 -179 43 -17 78 -22 143 -22 75 0 94&#10;4 152 31 64 30 157 110 157 136 0 11 -120 86 -138 86 -5 0 -19 -12 -33 -26&#10;-124 -133 -328 -43 -329 145 0 117 58 203 145 216 75 12 114 1 162 -47 l44&#10;-43 74 39 c41 21 75 42 75 47 0 5 -26 35 -57 67 -75 77 -140 102 -256 102 -48&#10;-1 -101 -8 -127 -17z"/>
<path d="M10293 2085 c-128 -64 -194 -168 -201 -315 -5 -104 13 -175 61 -246&#10;71 -103 178 -156 314 -156 70 -1 90 4 146 30 86 40 140 91 177 166 99 201 26&#10;428 -168 523 -49 24 -72 28 -157 31 -98 3 -102 3 -172 -33z m234 -136 c142&#10;-53 169 -302 42 -386 -105 -69 -255 -15 -288 104 -43 152 41 291 176 293 23 0&#10;54 -5 70 -11z"/>
<path d="M11205 2096 c-28 -13 -63 -37 -77 -55 l-27 -31 -3 42 -3 43 -82 3&#10;-83 3 0 -511 0 -511 86 3 86 3 -2 183 c0 100 3 182 8 182 5 0 17 -10 28 -21&#10;59 -67 230 -82 333 -30 95 49 167 167 182 296 20 179 -49 328 -183 394 -81 41&#10;-185 44 -263 7z m172 -154 c63 -34 93 -97 93 -199 0 -138 -77 -221 -196 -211&#10;-96 8 -160 76 -171 183 -10 95 29 181 102 226 39 24 128 25 172 1z"/>
<path d="M11959 2105 c-203 -74 -297 -342 -192 -548 70 -139 227 -214 392&#10;-188 80 13 135 40 190 92 l44 42 -29 21 c-16 12 -42 33 -58 47 l-29 26 -49&#10;-30 c-36 -23 -65 -32 -108 -35 -77 -6 -102 1 -146 40 -34 30 -71 94 -61 105 3&#10;2 117 5 253 6 l249 2 -1 93 c-2 83 -5 100 -33 157 -38 76 -111 146 -178 169&#10;-57 19 -193 20 -244 1z m196 -155 c41 -20 67 -53 79 -102 l6 -28 -165 0 -165&#10;0 15 38 c24 57 40 77 77 95 45 22 103 21 153 -3z"/>
<path d="M5630 1742 l0 -358 90 -1 90 -1 0 359 0 359 -90 0 -90 0 0 -358z"/>
</g>
</svg>